<svg width="30" height="30" viewBox="0 0 30 30" fill="none" xmlns="http://www.w3.org/2000/svg">
<g id="circle-check">
<path id="Vector" d="M15 26.25C18.1837 26.1719 20.835 25.0731 22.9537 22.9537C25.0725 20.8344 26.1713 18.1831 26.25 15C26.1719 11.8163 25.0731 9.165 22.9537 7.04625C20.8344 4.9275 18.1831 3.82875 15 3.75C11.8163 3.82813 9.165 4.92687 7.04625 7.04625C4.9275 9.16562 3.82875 11.8169 3.75 15C3.82813 18.1837 4.92687 20.835 7.04625 22.9537C9.16562 25.0725 11.8169 26.1713 15 26.25ZM15 28.125C11.2888 28.0275 8.19781 26.7434 5.72719 24.2728C3.25656 21.8022 1.9725 18.7112 1.875 15C1.9725 11.2888 3.25656 8.19781 5.72719 5.72719C8.19781 3.25656 11.2888 1.9725 15 1.875C18.7112 1.9725 21.8022 3.25656 24.2728 5.72719C26.7434 8.19781 28.0275 11.2888 28.125 15C28.0275 18.7112 26.7434 21.8022 24.2728 24.2728C21.8022 26.7434 18.7112 28.0275 15 28.125V28.125ZM21.8259 10.5759C22.0216 10.4003 22.2463 10.3125 22.5 10.3125C22.7537 10.3125 22.9734 10.4053 23.1591 10.5909C23.3447 10.7766 23.4375 10.9963 23.4375 11.25C23.4375 11.5037 23.3497 11.7284 23.1741 11.9241L14.7366 20.3616C14.5409 20.5372 14.3162 20.625 14.0625 20.625C13.8088 20.625 13.5841 20.5372 13.3884 20.3616L8.70094 15.6741C8.52531 15.4784 8.4375 15.2537 8.4375 15C8.4375 14.7463 8.53031 14.5266 8.71594 14.3409C8.90156 14.1553 9.12125 14.0625 9.375 14.0625C9.62875 14.0625 9.85344 14.1503 10.0491 14.3259L14.0625 18.3694L21.8259 10.5759Z" fill="#6A7BFF"/>
</g>
</svg>
