<svg width="20" height="20" viewBox="0 0 20 20" fill="none" xmlns="http://www.w3.org/2000/svg">
<g id="ic_xz">
<path id="Vector" d="M19 18.75H1C0.734784 18.75 0.48043 18.6348 0.292893 18.4296C0.105357 18.2245 0 17.9463 0 17.6562V5.625C0 5.33492 0.105357 5.05672 0.292893 4.8516C0.48043 4.64648 0.734784 4.53125 1 4.53125H3C3.26522 4.53125 3.51957 4.64648 3.70711 4.8516C3.89464 5.05672 4 5.33492 4 5.625C4 5.91508 3.89464 6.19328 3.70711 6.3984C3.51957 6.60352 3.26522 6.71875 3 6.71875H2V16.5625H18V6.71875H17C16.7348 6.71875 16.4804 6.60352 16.2929 6.3984C16.1054 6.19328 16 5.91508 16 5.625C16 5.33492 16.1054 5.05672 16.2929 4.8516C16.4804 4.64648 16.7348 4.53125 17 4.53125H19C19.2652 4.53125 19.5196 4.64648 19.7071 4.8516C19.8946 5.05672 20 5.33492 20 5.625V17.6562C20 17.9463 19.8946 18.2245 19.7071 18.4296C19.5196 18.6348 19.2652 18.75 19 18.75ZM9 10.6562V2.34375C9 2.05367 9.10536 1.77547 9.29289 1.57035C9.48043 1.36523 9.73478 1.25 10 1.25C10.2652 1.25 10.5196 1.36523 10.7071 1.57035C10.8946 1.77547 11 2.05367 11 2.34375V10.6344L12.28 9.23438C12.4713 9.05519 12.7174 8.96156 12.9691 8.97219C13.2207 8.98282 13.4595 9.09694 13.6376 9.29173C13.8157 9.48652 13.92 9.74764 13.9297 10.0229C13.9394 10.2982 13.8538 10.5673 13.69 10.7766L10.8 13.9375C10.707 14.0735 10.5862 14.1838 10.4473 14.2598C10.3084 14.3357 10.1553 14.3752 10 14.375C9.86839 14.3758 9.73793 14.3482 9.61609 14.2938C9.49426 14.2394 9.38344 14.1592 9.29 14.0578L6.29 10.7766C6.12617 10.5673 6.04057 10.2982 6.05029 10.0229C6.06001 9.74764 6.16434 9.48652 6.34244 9.29173C6.52053 9.09694 6.75927 8.98282 7.01095 8.97219C7.26262 8.96156 7.5087 9.05519 7.7 9.23438L9 10.6562Z" fill="white"/>
</g>
</svg>
