<svg xmlns="http://www.w3.org/2000/svg" xmlns:xlink="http://www.w3.org/1999/xlink" width="280" height="186.5" viewBox="0 0 280 186.5">
  <defs>
    <style>
      .cls-1 {
        fill: #5480e5;
        font-size: 14px;
        font-family: PingFangSC-Regular, PingFang SC;
      }

      .cls-2 {
        opacity: 0.353;
      }

      .cls-10, .cls-11, .cls-13, .cls-14, .cls-26, .cls-3, .cls-4, .cls-5, .cls-7, .cls-9 {
        fill-rule: evenodd;
      }

      .cls-3 {
        fill: url(#linear-gradient);
      }

      .cls-4 {
        fill: url(#linear-gradient-2);
      }

      .cls-5 {
        fill: url(#linear-gradient-3);
      }

      .cls-6 {
        opacity: 0.652;
      }

      .cls-7 {
        fill: url(#linear-gradient-7);
      }

      .cls-8 {
        fill: #e1e7ff;
      }

      .cls-26, .cls-9 {
        fill: none;
      }

      .cls-9 {
        stroke: #aeaceb;
        stroke-width: 2px;
        opacity: 0.422;
      }

      .cls-10 {
        fill: #e0e8ff;
      }

      .cls-11 {
        fill: #d7ddf3;
      }

      .cls-12 {
        opacity: 0.734;
      }

      .cls-13 {
        fill: url(#linear-gradient-8);
      }

      .cls-14 {
        fill: url(#linear-gradient-9);
      }

      .cls-15 {
        opacity: 0.456;
      }

      .cls-16 {
        fill: url(#linear-gradient-12);
      }

      .cls-17 {
        fill: #b3ccff;
      }

      .cls-18 {
        fill: #a8c4fc;
      }

      .cls-19 {
        fill: #b9d1ff;
      }

      .cls-20 {
        fill: #caddfd;
      }

      .cls-21 {
        opacity: 0.577;
      }

      .cls-22 {
        fill: #d7e7ff;
      }

      .cls-23 {
        fill: #c3dafd;
      }

      .cls-24 {
        fill: #77a0ea;
      }

      .cls-24, .cls-25 {
        font-size: 77px;
        font-family: SegoeUI-Semibold, Segoe UI;
        font-weight: 600;
      }

      .cls-25 {
        fill: #c7d9fc;
      }

      .cls-26 {
        stroke: #b9ceef;
      }
    </style>
    <linearGradient id="linear-gradient" x1="0.5" x2="0.5" y2="0.861" gradientUnits="objectBoundingBox">
      <stop offset="0" stop-color="#d2defb"/>
      <stop offset="1" stop-color="#f3f4f8"/>
    </linearGradient>
    <linearGradient id="linear-gradient-2" x1="0.5" x2="0.5" y2="0.439" gradientUnits="objectBoundingBox">
      <stop offset="0" stop-color="#e5ecf8"/>
      <stop offset="1" stop-color="#f3f4f6"/>
    </linearGradient>
    <linearGradient id="linear-gradient-3" x1="0.5" x2="0.5" y2="0.861" gradientUnits="objectBoundingBox">
      <stop offset="0" stop-color="#d8e3fb"/>
      <stop offset="1" stop-color="#f3f4f8"/>
    </linearGradient>
    <linearGradient id="linear-gradient-7" x1="0.5" x2="0.5" y2="1" gradientUnits="objectBoundingBox">
      <stop offset="0" stop-color="#d4e0fc"/>
      <stop offset="1" stop-color="#e0e8fe"/>
    </linearGradient>
    <linearGradient id="linear-gradient-8" x1="0.5" x2="0.5" y2="0.88" gradientUnits="objectBoundingBox">
      <stop offset="0" stop-color="#d0ddfc"/>
      <stop offset="1" stop-color="#f3f4f8"/>
    </linearGradient>
    <linearGradient id="linear-gradient-9" x1="0.5" x2="0.5" y2="1" gradientUnits="objectBoundingBox">
      <stop offset="0" stop-color="#e8edf8"/>
      <stop offset="1" stop-color="#f4f5f6"/>
    </linearGradient>
    <linearGradient id="linear-gradient-12" x1="0.551" y1="0.205" x2="0.462" y2="0.82" gradientUnits="objectBoundingBox">
      <stop offset="0" stop-color="#dbe7fc"/>
      <stop offset="1" stop-color="#f3f5f6" stop-opacity="0.188"/>
    </linearGradient>
  </defs>
  <g id="_400" data-name="400" transform="translate(-44.145 -59.498)">
    <text id="_" data-name="～" class="cls-1" transform="translate(130.145 215.998)"><tspan x="0" y="0">～</tspan></text>
    <g id="编组-4备份-7" transform="translate(44.028 59.498)">
      <g id="编组-14" class="cls-2" transform="translate(36.591 26.476)">
        <path id="矩形" class="cls-3" d="M0,57.772,19.392,0V57.772Z" transform="translate(0 0)"/>
        <path id="矩形备份-12" class="cls-4" d="M63.187.2,89.608,37.921l-3.7,9.854L63.187,57.913Z" transform="translate(-44.39 -0.14)"/>
      </g>
      <g id="编组-14备份-5" transform="translate(152.314 24.989)">
        <path id="矩形-2" data-name="矩形" class="cls-5" d="M0,40.623,30.022,2,27.369,48.706Z" transform="translate(0 -1.405)"/>
        <path id="矩形备份-12-2" data-name="矩形备份-12" class="cls-4" d="M94.654,0,139.6,51.763,92,47.491Z" transform="translate(-64.631)"/>
      </g>
      <g id="编组-14备份-9" transform="translate(205.266 65.447)">
        <path id="矩形-3" data-name="矩形" class="cls-5" d="M0,40.623,21.717,2,19.8,48.706Z" transform="translate(0 -1.405)"/>
        <path id="矩形备份-12-3" data-name="矩形备份-12" class="cls-4" d="M68.924,0l32.585,51.763L67,47.491Z" transform="translate(-47.068)"/>
      </g>
      <g id="编组-24" class="cls-6" transform="translate(93.411)">
        <g id="编组-23" transform="translate(0 26.179)">
          <path id="矩形-4" data-name="矩形" class="cls-7" d="M12.375,11H31.655V27.535l1.836,12.136L44.623,77.135q-11.877,6.451-22.786,6.451T0,77.135L10.08,39.671l2.3-12.352V11Z" transform="translate(0 -8.024)"/>
          <ellipse id="椭圆形" class="cls-8" cx="9.5" cy="3" rx="9.5" ry="3" transform="translate(12.706 0.322)"/>
          <path id="路径" class="cls-9" d="M42,49c0,1.643,4.262,2.975,9.52,2.975s9.52-1.332,9.52-2.975" transform="translate(-29.506 -34.72)"/>
          <path id="路径-2" data-name="路径" class="cls-9" d="M42,73c0,1.643,4.262,2.975,9.52,2.975s9.52-1.332,9.52-2.975" transform="translate(-29.506 -51.58)"/>
          <path id="路径-3" data-name="路径" class="cls-9" d="M36,97c0,1.643,4.928,2.975,11.007,2.975S58.014,98.642,58.014,97" transform="translate(-25.29 -68.44)"/>
        </g>
        <g id="编组-22" transform="translate(16.064)">
          <path id="椭圆形-2" data-name="椭圆形" class="cls-10" d="M7.872,29.154c4.091,0-1.976-9.322,7.407-12.213,6.706-2.066,12.462,5.573,14.307.825C35.714,1.991,45.263,5.778,42.273,2.734s-24.319-4.2-34.4,0C1.84,5.248,0,12.35,0,14.875,0,21.62,3.781,29.154,7.872,29.154Z" transform="translate(0)"/>
          <path id="椭圆形备份-7" class="cls-11" d="M7.781,37.584c4.044,0-1.953-8.138,7.322-10.661,6.629-1.8,12.639,4.145,14.462,0C35.624,13.152,45.992,12,39.682,12c-1.949,0-7.392,8.872-12.15,11.06-2.136.982-6.384-5.074-9.471-3.937-1.6.591-7.833,1.6-10.279,5.69C5.948,27.876,0,23.508,0,25.119,0,31.007,3.738,37.584,7.781,37.584Z" transform="translate(0 -8.43)"/>
        </g>
      </g>
      <g id="编组-13" class="cls-12" transform="translate(5.95 82.404)">
        <path id="矩形-5" data-name="矩形" class="cls-13" d="M23.2,1V81.024H0Z" transform="translate(0 -0.703)"/>
        <path id="矩形备份-11" class="cls-14" d="M78.162,0l51.6,65.757L88.637,79.124,78,80.322Z" transform="translate(-54.796)"/>
      </g>
      <g id="编组-13备份" class="cls-15" transform="translate(59.795 61.877)">
        <path id="矩形-6" data-name="矩形" class="cls-13" d="M.077,36.078Q1.151,21.77,17.772,0l1.565,65.745-6.424-1.036Q-1,50.385.077,36.078Z" transform="translate(0)"/>
        <path id="矩形备份-11-2" data-name="矩形备份-11" class="cls-14" d="M60,0,90.344,26.994,84.967,50.327,60,66.34Z" transform="translate(-42.151)"/>
      </g>
      <ellipse id="椭圆形-3" data-name="椭圆形" class="cls-16" cx="140" cy="51" rx="140" ry="51" transform="translate(0.117 84.5)"/>
      <g id="编组" transform="translate(29.749 112.45)">
        <path id="路径-4" data-name="路径" class="cls-17" d="M16,48h3.57v5.95H16Z" transform="translate(-11.24 -33.721)"/>
        <path id="路径-5" data-name="路径" class="cls-18" d="M6.842,23.9h6.842l-3.421-5.95L6.842,12,3.421,17.95,0,23.9Z" transform="translate(0 -8.43)"/>
        <path id="路径-6" data-name="路径" class="cls-19" d="M7.95,18.115H13.9l-2.975-5.057L7.95,8,4.975,13.057,2,18.115Z" transform="translate(-1.405 -5.62)"/>
        <path id="路径-7" data-name="路径" class="cls-20" d="M11.057,8.925h5.057L13.586,4.462,11.057,0,8.529,4.462,6,8.925Z" transform="translate(-4.215)"/>
      </g>
      <g id="编组备份-5" class="cls-21" transform="translate(230.553 107.988)">
        <path id="路径-8" data-name="路径" class="cls-17" d="M16,48h3.57v5.95H16Z" transform="translate(-11.24 -33.721)"/>
        <path id="路径-9" data-name="路径" class="cls-18" d="M6.842,23.9h6.842l-3.421-5.95L6.842,12,3.421,17.95,0,23.9Z" transform="translate(0 -8.43)"/>
        <path id="路径-10" data-name="路径" class="cls-19" d="M7.95,18.115H13.9l-2.975-5.057L7.95,8,4.975,13.057,2,18.115Z" transform="translate(-1.405 -5.62)"/>
        <path id="路径-11" data-name="路径" class="cls-20" d="M11.057,8.925h5.057L13.586,4.462,11.057,0,8.529,4.462,6,8.925Z" transform="translate(-4.215)"/>
      </g>
    </g>
    <ellipse id="椭圆形-4" data-name="椭圆形" class="cls-22" cx="30" cy="4" rx="30" ry="4" transform="translate(154.145 192.998)"/>
    <ellipse id="椭圆形备份-4" class="cls-23" cx="65" cy="10.5" rx="65" ry="10.5" transform="translate(133.145 165.998)"/>
    <g id="编组-12" transform="translate(118.995 90.436)">
      <text id="_404" data-name="404" class="cls-24" transform="translate(0.15 82.563)"><tspan x="0" y="0">404</tspan></text>
      <text id="_404备份" data-name="404备份" class="cls-25" transform="translate(3.15 82.563)"><tspan x="0" y="0">404</tspan></text>
    </g>
    <path id="路径-64" class="cls-26" d="M486,651q0,4.349,3.959,4.349" transform="translate(-341.421 -457.336)"/>
    <path id="路径-64备份" class="cls-26" d="M474,655q0,2.083,1.785,2.082" transform="translate(-332.991 -460.146)"/>
  </g>
</svg>
